<mxfile host="65bd71144e" modified="2021-02-04T11:23:32.030Z" agent="5.0 (Windows NT 10.0; Win64; x64) AppleWebKit/537.36 (KHTML, like Gecko) Code/1.52.1 Chrome/83.0.4103.122 Electron/9.3.5 Safari/537.36" etag="qron9mgjWCMkiNlXo-9l" version="13.10.0" type="embed">
    <diagram id="dPWNrwKxGn20hl-fF18X" name="Page-1">
        <mxGraphModel dx="1190" dy="833" grid="1" gridSize="10" guides="1" tooltips="1" connect="1" arrows="1" fold="1" page="1" pageScale="1" pageWidth="1100" pageHeight="850" math="0" shadow="0">
            <root>
                <mxCell id="0"/>
                <mxCell id="1" parent="0"/>
                <mxCell id="3" value="" style="edgeStyle=orthogonalEdgeStyle;rounded=0;orthogonalLoop=1;jettySize=auto;html=1;" edge="1" parent="1" source="09FdmenyhTRer1Kd7Jpk-44" target="2">
                    <mxGeometry relative="1" as="geometry"/>
                </mxCell>
                <mxCell id="09FdmenyhTRer1Kd7Jpk-44" value="APP" style="rounded=0;whiteSpace=wrap;html=1;fontSize=20;" parent="1" vertex="1">
                    <mxGeometry x="405" y="580" width="120" height="60" as="geometry"/>
                </mxCell>
                <mxCell id="09FdmenyhTRer1Kd7Jpk-62" style="edgeStyle=orthogonalEdgeStyle;rounded=0;orthogonalLoop=1;jettySize=auto;html=1;strokeWidth=3;fontSize=20;" parent="1" source="09FdmenyhTRer1Kd7Jpk-51" target="09FdmenyhTRer1Kd7Jpk-44" edge="1">
                    <mxGeometry relative="1" as="geometry"/>
                </mxCell>
                <mxCell id="09FdmenyhTRer1Kd7Jpk-51" value="index.js" style="rounded=0;whiteSpace=wrap;html=1;fontSize=20;" parent="1" vertex="1">
                    <mxGeometry x="405" y="295" width="120" height="60" as="geometry"/>
                </mxCell>
                <mxCell id="09FdmenyhTRer1Kd7Jpk-55" style="edgeStyle=orthogonalEdgeStyle;rounded=0;orthogonalLoop=1;jettySize=auto;html=1;strokeWidth=3;" parent="1" source="09FdmenyhTRer1Kd7Jpk-53" target="09FdmenyhTRer1Kd7Jpk-51" edge="1">
                    <mxGeometry relative="1" as="geometry"/>
                </mxCell>
                <mxCell id="09FdmenyhTRer1Kd7Jpk-53" value="&lt;font color=&quot;#ff8000&quot;&gt;state.js&lt;/font&gt;" style="rounded=0;whiteSpace=wrap;html=1;fontSize=20;" parent="1" vertex="1">
                    <mxGeometry x="665" y="150" width="120" height="60" as="geometry"/>
                </mxCell>
                <mxCell id="09FdmenyhTRer1Kd7Jpk-57" value="export &lt;font color=&quot;#ff3399&quot;&gt;state&lt;/font&gt;&lt;br style=&quot;font-size: 14px&quot;&gt;&lt;br style=&quot;font-size: 14px&quot;&gt;export function&lt;br style=&quot;font-size: 14px&quot;&gt;addPost()&lt;br style=&quot;font-size: 14px&quot;&gt;updatePost()&lt;br style=&quot;font-size: 14px&quot;&gt;&lt;font color=&quot;#00cc00&quot;&gt;subscribe()&lt;/font&gt;" style="text;html=1;strokeColor=none;fillColor=none;align=center;verticalAlign=middle;whiteSpace=wrap;rounded=0;fontStyle=1;fontSize=14;" parent="1" vertex="1">
                    <mxGeometry x="465" y="80" width="200" height="100" as="geometry"/>
                </mxCell>
                <mxCell id="09FdmenyhTRer1Kd7Jpk-60" style="edgeStyle=orthogonalEdgeStyle;rounded=0;orthogonalLoop=1;jettySize=auto;html=1;entryX=0.5;entryY=1;entryDx=0;entryDy=0;fontSize=20;shape=flexArrow;strokeWidth=1;" parent="1" source="09FdmenyhTRer1Kd7Jpk-58" target="09FdmenyhTRer1Kd7Jpk-53" edge="1">
                    <mxGeometry relative="1" as="geometry">
                        <Array as="points">
                            <mxPoint x="295" y="510"/>
                            <mxPoint x="725" y="510"/>
                        </Array>
                    </mxGeometry>
                </mxCell>
                <mxCell id="09FdmenyhTRer1Kd7Jpk-58" value="&lt;b&gt;const renderEntrieTree&lt;br&gt;&lt;br&gt;renderEntrieTree( &lt;font color=&quot;#ff3399&quot;&gt;state &lt;/font&gt;)&lt;br&gt;&lt;br&gt;&lt;font color=&quot;#00cc00&quot;&gt;subscribe&lt;/font&gt;(renderEntrieTree)&lt;br&gt;&lt;/b&gt;" style="text;html=1;strokeColor=none;fillColor=none;align=center;verticalAlign=middle;whiteSpace=wrap;rounded=0;fontSize=14;" parent="1" vertex="1">
                    <mxGeometry x="185" y="278" width="220" height="94" as="geometry"/>
                </mxCell>
                <mxCell id="09FdmenyhTRer1Kd7Jpk-61" value="&lt;font style=&quot;font-size: 13px&quot;&gt;Без циклической зависимости, с помощью callback передаем функцию отрисовки &lt;b&gt;renderEntrieTree &lt;/b&gt;в качестве параметра для функции &lt;font color=&quot;#00cc00&quot; style=&quot;font-weight: bold ; font-size: 13px&quot;&gt;subscribe(&lt;/font&gt;&lt;b&gt;rebderEntrieTree&lt;/b&gt;&lt;font color=&quot;#00cc00&quot; style=&quot;font-weight: bold ; font-size: 13px&quot;&gt;)&lt;/font&gt;&lt;br&gt;в файл &lt;font color=&quot;#ff8000&quot; style=&quot;font-size: 13px&quot;&gt;&lt;b&gt;state.js&lt;/b&gt;&lt;/font&gt;&lt;br&gt;&lt;/font&gt;" style="text;html=1;strokeColor=none;fillColor=none;align=center;verticalAlign=middle;whiteSpace=wrap;rounded=0;fontSize=20;" parent="1" vertex="1">
                    <mxGeometry x="735" y="240" width="180" height="200" as="geometry"/>
                </mxCell>
                <mxCell id="2" value="UAI" style="whiteSpace=wrap;html=1;rounded=0;fontSize=20;" vertex="1" parent="1">
                    <mxGeometry x="405" y="720" width="120" height="60" as="geometry"/>
                </mxCell>
                <mxCell id="4" value="&lt;b&gt;&lt;font style=&quot;font-size: 42px&quot;&gt;Паттерн OBSERVER&lt;/font&gt;&lt;/b&gt;" style="text;html=1;strokeColor=#314354;fillColor=#647687;align=center;verticalAlign=middle;whiteSpace=wrap;rounded=0;fontColor=#ffffff;" vertex="1" parent="1">
                    <mxGeometry x="30" y="40" width="270" height="120" as="geometry"/>
                </mxCell>
            </root>
        </mxGraphModel>
    </diagram>
</mxfile>